<?xml version="1.0" encoding="UTF-8"?>
<svg xmlns="http://www.w3.org/2000/svg" xmlns:xlink="http://www.w3.org/1999/xlink" width="343.868478pt" height="200.505412pt" viewBox="0 0 343.868478 200.505412">
<defs>
<g>
<g id="glyph-0-0">
<path d="M 6.234375 -4.453125 C 6.234375 -5.609375 6.15625 -6.734375 5.65625 -7.78125 C 5.09375 -8.9375 4.09375 -9.25 3.40625 -9.25 C 2.59375 -9.25 1.609375 -8.84375 1.09375 -7.6875 C 0.703125 -6.8125 0.5625 -5.953125 0.5625 -4.453125 C 0.5625 -3.09375 0.671875 -2.078125 1.171875 -1.09375 C 1.703125 -0.046875 2.671875 0.296875 3.390625 0.296875 C 4.609375 0.296875 5.296875 -0.4375 5.703125 -1.234375 C 6.203125 -2.28125 6.234375 -3.640625 6.234375 -4.453125 Z M 3.390625 0.015625 C 2.953125 0.015625 2.046875 -0.234375 1.78125 -1.75 C 1.625 -2.59375 1.625 -3.640625 1.625 -4.609375 C 1.625 -5.75 1.625 -6.78125 1.84375 -7.609375 C 2.078125 -8.53125 2.796875 -8.96875 3.390625 -8.96875 C 3.921875 -8.96875 4.734375 -8.65625 5 -7.453125 C 5.171875 -6.65625 5.171875 -5.5625 5.171875 -4.609375 C 5.171875 -3.6875 5.171875 -2.625 5.015625 -1.78125 C 4.75 -0.25 3.875 0.015625 3.390625 0.015625 Z M 3.390625 0.015625 "/>
</g>
<g id="glyph-0-1">
<path d="M 6.125 -2.34375 L 5.8125 -2.34375 C 5.765625 -2.09375 5.65625 -1.328125 5.515625 -1.109375 C 5.421875 -0.984375 4.625 -0.984375 4.21875 -0.984375 L 1.640625 -0.984375 C 2.015625 -1.3125 2.859375 -2.203125 3.21875 -2.53125 C 5.34375 -4.484375 6.125 -5.203125 6.125 -6.578125 C 6.125 -8.171875 4.859375 -9.25 3.234375 -9.25 C 1.625 -9.25 0.6875 -7.875 0.6875 -6.671875 C 0.6875 -5.96875 1.296875 -5.96875 1.328125 -5.96875 C 1.625 -5.96875 1.984375 -6.171875 1.984375 -6.625 C 1.984375 -7.015625 1.71875 -7.265625 1.328125 -7.265625 C 1.203125 -7.265625 1.1875 -7.265625 1.140625 -7.265625 C 1.40625 -8.203125 2.15625 -8.84375 3.0625 -8.84375 C 4.234375 -8.84375 4.96875 -7.859375 4.96875 -6.578125 C 4.96875 -5.390625 4.28125 -4.359375 3.484375 -3.46875 L 0.6875 -0.328125 L 0.6875 0 L 5.75 0 Z M 6.125 -2.34375 "/>
</g>
<g id="glyph-0-2">
<path d="M 1.78125 -7.96875 C 2.375 -7.78125 2.859375 -7.765625 3.015625 -7.765625 C 4.59375 -7.765625 5.59375 -8.90625 5.59375 -9.109375 C 5.59375 -9.171875 5.5625 -9.234375 5.484375 -9.234375 C 5.453125 -9.234375 5.421875 -9.234375 5.296875 -9.171875 C 4.515625 -8.84375 3.859375 -8.796875 3.484375 -8.796875 C 2.578125 -8.796875 1.921875 -9.078125 1.65625 -9.1875 C 1.5625 -9.234375 1.53125 -9.234375 1.515625 -9.234375 C 1.40625 -9.234375 1.40625 -9.15625 1.40625 -8.921875 L 1.40625 -4.796875 C 1.40625 -4.546875 1.40625 -4.46875 1.578125 -4.46875 C 1.640625 -4.46875 1.65625 -4.484375 1.796875 -4.640625 C 2.1875 -5.21875 2.84375 -5.546875 3.53125 -5.546875 C 4.265625 -5.546875 4.625 -4.859375 4.734375 -4.625 C 4.984375 -4.09375 5 -3.40625 5 -2.875 C 5 -2.34375 5 -1.5625 4.609375 -0.9375 C 4.296875 -0.4375 3.75 -0.078125 3.140625 -0.078125 C 2.21875 -0.078125 1.328125 -0.703125 1.078125 -1.71875 C 1.140625 -1.703125 1.21875 -1.6875 1.296875 -1.6875 C 1.53125 -1.6875 1.90625 -1.828125 1.90625 -2.296875 C 1.90625 -2.6875 1.640625 -2.90625 1.296875 -2.90625 C 1.046875 -2.90625 0.6875 -2.78125 0.6875 -2.234375 C 0.6875 -1.0625 1.625 0.296875 3.171875 0.296875 C 4.734375 0.296875 6.125 -1.03125 6.125 -2.796875 C 6.125 -4.453125 5 -5.828125 3.546875 -5.828125 C 2.75 -5.828125 2.140625 -5.484375 1.78125 -5.09375 Z M 1.78125 -7.96875 "/>
</g>
<g id="glyph-0-3">
<path d="M 6.609375 -8.640625 L 6.609375 -8.953125 L 3.25 -8.953125 C 1.578125 -8.953125 1.546875 -9.140625 1.484375 -9.40625 L 1.1875 -9.40625 L 0.75 -6.625 L 1.0625 -6.625 C 1.09375 -6.875 1.21875 -7.734375 1.40625 -7.890625 C 1.515625 -7.96875 2.5625 -7.96875 2.75 -7.96875 L 5.703125 -7.96875 L 4.234375 -5.859375 C 3.859375 -5.3125 2.453125 -3.03125 2.453125 -0.421875 C 2.453125 -0.265625 2.453125 0.296875 3.015625 0.296875 C 3.609375 0.296875 3.609375 -0.25 3.609375 -0.4375 L 3.609375 -1.125 C 3.609375 -3.203125 3.9375 -4.8125 4.59375 -5.75 Z M 6.609375 -8.640625 "/>
</g>
<g id="glyph-0-4">
<path d="M 4 -8.90625 C 4 -9.234375 4 -9.25 3.734375 -9.25 C 3.390625 -8.875 2.703125 -8.359375 1.265625 -8.359375 L 1.265625 -7.953125 C 1.578125 -7.953125 2.28125 -7.953125 3.046875 -8.3125 L 3.046875 -1.078125 C 3.046875 -0.5625 3 -0.40625 1.78125 -0.40625 L 1.34375 -0.40625 L 1.34375 0 C 1.71875 -0.03125 3.078125 -0.03125 3.53125 -0.03125 C 3.984375 -0.03125 5.328125 -0.03125 5.703125 0 L 5.703125 -0.40625 L 5.265625 -0.40625 C 4.046875 -0.40625 4 -0.5625 4 -1.078125 Z M 4 -8.90625 "/>
</g>
<g id="glyph-0-5">
<path d="M 4.140625 -5.015625 C 4.84375 -5.390625 5.859375 -6.03125 5.859375 -7.203125 C 5.859375 -8.40625 4.6875 -9.25 3.40625 -9.25 C 2.03125 -9.25 0.953125 -8.234375 0.953125 -6.96875 C 0.953125 -6.5 1.078125 -6.015625 1.46875 -5.546875 C 1.625 -5.375 1.640625 -5.359375 2.609375 -4.671875 C 1.265625 -4.046875 0.5625 -3.109375 0.5625 -2.09375 C 0.5625 -0.625 1.96875 0.296875 3.390625 0.296875 C 4.9375 0.296875 6.234375 -0.84375 6.234375 -2.3125 C 6.234375 -3.734375 5.234375 -4.359375 4.140625 -5.015625 Z M 2.25 -6.265625 C 2.078125 -6.390625 1.515625 -6.765625 1.515625 -7.4375 C 1.515625 -8.34375 2.46875 -8.90625 3.390625 -8.90625 C 4.390625 -8.90625 5.28125 -8.1875 5.28125 -7.1875 C 5.28125 -6.34375 4.671875 -5.65625 3.859375 -5.21875 Z M 2.90625 -4.484375 L 4.59375 -3.375 C 4.953125 -3.140625 5.59375 -2.71875 5.59375 -1.859375 C 5.59375 -0.8125 4.515625 -0.078125 3.40625 -0.078125 C 2.21875 -0.078125 1.203125 -0.953125 1.203125 -2.09375 C 1.203125 -3.1875 2 -4.0625 2.90625 -4.484375 Z M 2.90625 -4.484375 "/>
</g>
<g id="glyph-0-6">
<path d="M 5.015625 -9.046875 C 5.015625 -9.3125 5.015625 -9.390625 4.828125 -9.390625 C 4.71875 -9.390625 4.671875 -9.390625 4.5625 -9.21875 L 0.375 -2.71875 L 0.375 -2.328125 L 4.03125 -2.328125 L 4.03125 -1.0625 C 4.03125 -0.546875 4 -0.40625 2.984375 -0.40625 L 2.71875 -0.40625 L 2.71875 0 C 3.03125 -0.03125 4.125 -0.03125 4.515625 -0.03125 C 4.90625 -0.03125 6.015625 -0.03125 6.34375 0 L 6.34375 -0.40625 L 6.0625 -0.40625 C 5.0625 -0.40625 5.015625 -0.546875 5.015625 -1.0625 L 5.015625 -2.328125 L 6.421875 -2.328125 L 6.421875 -2.71875 L 5.015625 -2.71875 Z M 4.109375 -7.96875 L 4.109375 -2.71875 L 0.71875 -2.71875 Z M 4.109375 -7.96875 "/>
</g>
<g id="glyph-1-0">
<path d="M 1.59375 -1.515625 C 1.59375 -0.46875 1.421875 -0.3125 0.25 -0.265625 L 0.25 0 L 4.375 0 L 4.375 -0.265625 C 3.234375 -0.3125 3.015625 -0.5 3.015625 -1.515625 L 3.015625 -7.6875 C 3.015625 -8.703125 3.21875 -8.890625 4.375 -8.9375 L 4.375 -9.203125 L 0.25 -9.203125 L 0.25 -8.9375 C 1.4375 -8.875 1.59375 -8.71875 1.59375 -7.6875 Z M 1.59375 -1.515625 "/>
</g>
<g id="glyph-1-1">
<path d="M 3.546875 -6.25 L 2.140625 -6.25 L 2.140625 -7.875 C 2.140625 -8.015625 2.125 -8.046875 2.046875 -8.046875 C 1.953125 -7.921875 1.859375 -7.796875 1.765625 -7.65625 C 1.234375 -6.890625 0.640625 -6.234375 0.421875 -6.171875 C 0.265625 -6.078125 0.1875 -5.984375 0.1875 -5.90625 C 0.1875 -5.875 0.1875 -5.84375 0.234375 -5.8125 L 0.96875 -5.8125 L 0.96875 -1.625 C 0.96875 -0.453125 1.390625 0.140625 2.21875 0.140625 C 2.890625 0.140625 3.421875 -0.1875 3.875 -0.921875 L 3.703125 -1.078125 C 3.40625 -0.71875 3.171875 -0.578125 2.859375 -0.578125 C 2.34375 -0.578125 2.140625 -0.953125 2.140625 -1.828125 L 2.140625 -5.8125 L 3.546875 -5.8125 Z M 3.546875 -6.25 "/>
</g>
<g id="glyph-1-2">
<path d="M 5.671875 -2.28125 C 5 -1.21875 4.40625 -0.828125 3.515625 -0.828125 C 2.71875 -0.828125 2.125 -1.21875 1.71875 -2.015625 C 1.46875 -2.546875 1.375 -3 1.34375 -3.859375 L 5.625 -3.859375 C 5.515625 -4.75 5.375 -5.15625 5.03125 -5.609375 C 4.609375 -6.109375 3.984375 -6.390625 3.25 -6.390625 C 2.5625 -6.390625 1.90625 -6.140625 1.375 -5.671875 C 0.71875 -5.109375 0.34375 -4.109375 0.34375 -2.96875 C 0.34375 -1.0625 1.34375 0.140625 2.953125 0.140625 C 4.265625 0.140625 5.3125 -0.6875 5.890625 -2.1875 Z M 1.375 -4.296875 C 1.53125 -5.375 2 -5.890625 2.84375 -5.890625 C 3.703125 -5.890625 4.03125 -5.5 4.21875 -4.296875 Z M 1.375 -4.296875 "/>
</g>
<g id="glyph-1-3">
<path d="M 0.09375 -5.421875 C 0.296875 -5.46875 0.421875 -5.484375 0.578125 -5.484375 C 0.9375 -5.484375 1.0625 -5.25 1.0625 -4.640625 L 1.0625 -1.171875 C 1.0625 -0.46875 0.953125 -0.375 0.0625 -0.203125 L 0.0625 0 L 3.40625 0 L 3.40625 -0.203125 C 2.46875 -0.25 2.21875 -0.453125 2.21875 -1.25 L 2.21875 -4.375 C 2.21875 -4.828125 2.828125 -5.515625 3.203125 -5.515625 C 3.28125 -5.515625 3.40625 -5.453125 3.5625 -5.3125 C 3.78125 -5.125 3.9375 -5.03125 4.109375 -5.03125 C 4.453125 -5.03125 4.65625 -5.265625 4.65625 -5.65625 C 4.65625 -6.125 4.359375 -6.390625 3.890625 -6.390625 C 3.3125 -6.390625 2.90625 -6.078125 2.21875 -5.09375 L 2.21875 -6.375 L 2.15625 -6.390625 C 1.421875 -6.09375 0.921875 -5.90625 0.09375 -5.640625 Z M 0.09375 -5.421875 "/>
</g>
<g id="glyph-1-4">
<path d="M 6.140625 -0.921875 C 5.90625 -0.71875 5.75 -0.65625 5.53125 -0.65625 C 5.21875 -0.65625 5.125 -0.84375 5.125 -1.453125 L 5.125 -4.171875 C 5.125 -4.890625 5.046875 -5.296875 4.84375 -5.625 C 4.53125 -6.125 3.9375 -6.390625 3.109375 -6.390625 C 1.8125 -6.390625 0.78125 -5.71875 0.78125 -4.84375 C 0.78125 -4.515625 1.0625 -4.234375 1.375 -4.234375 C 1.703125 -4.234375 2 -4.515625 2 -4.828125 C 2 -4.875 1.984375 -4.953125 1.96875 -5.046875 C 1.953125 -5.171875 1.9375 -5.28125 1.9375 -5.375 C 1.9375 -5.75 2.375 -6.0625 2.9375 -6.0625 C 3.609375 -6.0625 3.984375 -5.65625 3.984375 -4.90625 L 3.984375 -4.0625 C 1.84375 -3.203125 1.609375 -3.09375 1.015625 -2.5625 C 0.703125 -2.28125 0.515625 -1.8125 0.515625 -1.34375 C 0.515625 -0.46875 1.125 0.140625 1.96875 0.140625 C 2.59375 0.140625 3.15625 -0.15625 4 -0.875 C 4.078125 -0.15625 4.328125 0.140625 4.890625 0.140625 C 5.375 0.140625 5.65625 -0.03125 6.140625 -0.5625 Z M 3.984375 -1.703125 C 3.984375 -1.28125 3.921875 -1.15625 3.625 -0.984375 C 3.296875 -0.796875 2.90625 -0.671875 2.609375 -0.671875 C 2.125 -0.671875 1.734375 -1.140625 1.734375 -1.734375 L 1.734375 -1.796875 C 1.734375 -2.609375 2.3125 -3.109375 3.984375 -3.734375 Z M 3.984375 -1.703125 "/>
</g>
<g id="glyph-1-5">
<path d="M 2.4375 -6.390625 L 0.28125 -5.625 L 0.28125 -5.421875 L 0.390625 -5.4375 C 0.5625 -5.46875 0.734375 -5.484375 0.859375 -5.484375 C 1.203125 -5.484375 1.328125 -5.25 1.328125 -4.640625 L 1.328125 -1.421875 C 1.328125 -0.421875 1.1875 -0.265625 0.21875 -0.203125 L 0.21875 0 L 3.515625 0 L 3.515625 -0.203125 C 2.59375 -0.28125 2.484375 -0.421875 2.484375 -1.421875 L 2.484375 -6.359375 Z M 1.78125 -9.5 C 1.40625 -9.5 1.078125 -9.171875 1.078125 -8.78125 C 1.078125 -8.40625 1.390625 -8.078125 1.78125 -8.078125 C 2.1875 -8.078125 2.5 -8.390625 2.5 -8.78125 C 2.5 -9.171875 2.1875 -9.5 1.78125 -9.5 Z M 1.78125 -9.5 "/>
</g>
<g id="glyph-1-6">
<path d="M 3.46875 -6.390625 C 1.671875 -6.390625 0.40625 -5.0625 0.40625 -3.140625 C 0.40625 -1.265625 1.703125 0.140625 3.453125 0.140625 C 5.203125 0.140625 6.53125 -1.328125 6.53125 -3.25 C 6.53125 -5.078125 5.25 -6.390625 3.46875 -6.390625 Z M 3.296875 -6 C 4.46875 -6 5.28125 -4.671875 5.28125 -2.765625 C 5.28125 -1.203125 4.65625 -0.25 3.609375 -0.25 C 3.078125 -0.25 2.5625 -0.578125 2.265625 -1.140625 C 1.875 -1.859375 1.65625 -2.84375 1.65625 -3.828125 C 1.65625 -5.140625 2.3125 -6 3.296875 -6 Z M 3.296875 -6 "/>
</g>
<g id="glyph-1-7">
<path d="M 0.21875 -5.53125 C 0.3125 -5.578125 0.4375 -5.59375 0.59375 -5.59375 C 0.984375 -5.59375 1.109375 -5.375 1.109375 -4.703125 L 1.109375 -1.25 C 1.109375 -0.453125 0.953125 -0.265625 0.25 -0.203125 L 0.25 0 L 3.203125 0 L 3.203125 -0.203125 C 2.484375 -0.265625 2.28125 -0.4375 2.28125 -0.9375 L 2.28125 -4.84375 C 2.953125 -5.46875 3.25 -5.625 3.71875 -5.625 C 4.390625 -5.625 4.734375 -5.203125 4.734375 -4.28125 L 4.734375 -1.375 C 4.734375 -0.5 4.546875 -0.265625 3.859375 -0.203125 L 3.859375 0 L 6.75 0 L 6.75 -0.203125 C 6.0625 -0.28125 5.890625 -0.4375 5.890625 -1.125 L 5.890625 -4.3125 C 5.890625 -5.625 5.28125 -6.390625 4.25 -6.390625 C 3.609375 -6.390625 3.1875 -6.15625 2.234375 -5.265625 L 2.234375 -6.375 L 2.140625 -6.390625 C 1.453125 -6.140625 0.984375 -6 0.21875 -5.765625 Z M 0.21875 -5.53125 "/>
</g>
<g id="glyph-2-0">
<path d="M 2.5625 -0.671875 C 2.5625 -1.078125 2.21875 -1.34375 1.890625 -1.34375 C 1.484375 -1.34375 1.203125 -1.015625 1.203125 -0.6875 C 1.203125 -0.28125 1.546875 0 1.875 0 C 2.28125 0 2.5625 -0.328125 2.5625 -0.671875 Z M 2.5625 -0.671875 "/>
</g>
<g id="glyph-3-0">
<path d="M -0.265625 -9.8125 C -0.3125 -9.1875 -0.4375 -9.046875 -1.46875 -8.5625 L -9.375 -5.109375 L -9.375 -4.828125 L -2.546875 -1.9375 C -0.515625 -1.046875 -0.296875 -0.875 -0.265625 -0.203125 L 0 -0.203125 L 0 -2.96875 L -0.265625 -2.96875 C -0.265625 -2.296875 -0.4375 -2.015625 -0.828125 -2.015625 C -1 -2.015625 -1.203125 -2.0625 -1.375 -2.125 L -3 -2.765625 L -3 -6.40625 L -1.671875 -6.984375 C -1.296875 -7.140625 -0.9375 -7.25 -0.734375 -7.25 C -0.390625 -7.25 -0.28125 -7.015625 -0.265625 -6.265625 L 0 -6.265625 L 0 -9.8125 Z M -3.578125 -3 L -7.390625 -4.609375 L -3.578125 -6.21875 Z M -3.578125 -3 "/>
</g>
<g id="glyph-3-1">
<path d="M -6.25 -6.640625 L -6.25 -4.703125 L -6.046875 -4.703125 C -6 -5.140625 -5.875 -5.359375 -5.609375 -5.359375 C -5.46875 -5.359375 -5.328125 -5.328125 -5.1875 -5.265625 L -1.578125 -3.890625 L -5.140625 -2.46875 C -5.34375 -2.390625 -5.53125 -2.34375 -5.65625 -2.34375 C -5.90625 -2.34375 -6 -2.5 -6.046875 -2.984375 L -6.25 -2.984375 L -6.25 -0.265625 L -6.046875 -0.265625 C -6.015625 -0.796875 -5.875 -0.890625 -4.453125 -1.53125 L -0.453125 -3.203125 C -0.375 -3.21875 -0.28125 -3.265625 -0.171875 -3.3125 C 0.078125 -3.390625 0.1875 -3.46875 0.1875 -3.5625 C 0.1875 -3.640625 0.015625 -3.734375 -0.5 -3.953125 L -4.96875 -5.734375 C -5.90625 -6.125 -6 -6.21875 -6.046875 -6.640625 Z M -6.25 -6.640625 "/>
</g>
<g id="glyph-3-2">
<path d="M -5.390625 -6.53125 L -5.9375 -6.53125 L -5.9375 -5.46875 C -5.9375 -5.1875 -5.984375 -4.984375 -6.078125 -4.703125 L -6.1875 -4.390625 C -6.328125 -4.015625 -6.390625 -3.640625 -6.390625 -3.28125 C -6.390625 -1.984375 -5.390625 -0.953125 -4.125 -0.953125 C -3.25 -0.953125 -2.71875 -1.328125 -2.265625 -2.25 C -2.015625 -1.984375 -1.78125 -1.734375 -1.703125 -1.65625 C -1.3125 -1.203125 -1.03125 -1.015625 -0.75 -1.015625 C -0.453125 -1.015625 -0.296875 -1.1875 -0.015625 -1.75 C 0.703125 -0.765625 1.171875 -0.390625 1.6875 -0.390625 C 2.421875 -0.390625 3.03125 -1.46875 3.03125 -2.796875 C 3.03125 -3.84375 2.671875 -4.921875 2.078125 -5.640625 C 1.65625 -6.171875 1.203125 -6.40625 0.6875 -6.40625 C -0.1875 -6.40625 -0.765625 -5.75 -0.8125 -4.734375 L -0.890625 -2.9375 C -0.921875 -2.203125 -1.046875 -1.84375 -1.265625 -1.84375 C -1.546875 -1.84375 -2.03125 -2.3125 -2.140625 -2.6875 C -2.125 -2.8125 -2.109375 -2.90625 -2.109375 -2.953125 C -2.078125 -3.21875 -2.078125 -3.390625 -2.078125 -3.46875 C -2.078125 -3.984375 -2.28125 -4.546875 -2.65625 -4.984375 C -3.046875 -5.4375 -3.53125 -5.640625 -4.234375 -5.640625 C -4.625 -5.640625 -4.953125 -5.578125 -5.390625 -5.375 Z M 0.03125 -2.046875 C 0.125 -2.5 0.203125 -3.609375 0.203125 -4.296875 C 0.203125 -5.5625 0.390625 -6.015625 0.890625 -6.015625 C 1.703125 -6.015625 2.234375 -4.96875 2.234375 -3.390625 C 2.234375 -2.171875 1.828125 -1.359375 1.21875 -1.359375 C 0.90625 -1.359375 0.71875 -1.453125 0.03125 -2.046875 Z M -4.703125 -2.109375 C -5.515625 -2.109375 -6 -2.5 -6 -3.140625 C -6 -3.578125 -5.765625 -3.9375 -5.359375 -4.15625 C -4.859375 -4.40625 -4.234375 -4.578125 -3.6875 -4.578125 C -2.90625 -4.578125 -2.421875 -4.171875 -2.421875 -3.53125 C -2.421875 -2.703125 -3.328125 -2.109375 -4.65625 -2.109375 Z M -4.703125 -2.109375 "/>
</g>
<g id="glyph-3-3">
<path d="M -6.25 -3.546875 L -6.25 -2.140625 L -7.875 -2.140625 C -8.015625 -2.140625 -8.046875 -2.125 -8.046875 -2.046875 C -7.921875 -1.953125 -7.796875 -1.859375 -7.65625 -1.765625 C -6.890625 -1.234375 -6.234375 -0.640625 -6.171875 -0.421875 C -6.078125 -0.265625 -5.984375 -0.1875 -5.90625 -0.1875 C -5.875 -0.1875 -5.84375 -0.1875 -5.8125 -0.234375 L -5.8125 -0.96875 L -1.625 -0.96875 C -0.453125 -0.96875 0.140625 -1.390625 0.140625 -2.21875 C 0.140625 -2.890625 -0.1875 -3.421875 -0.921875 -3.875 L -1.078125 -3.703125 C -0.71875 -3.40625 -0.578125 -3.171875 -0.578125 -2.859375 C -0.578125 -2.34375 -0.953125 -2.140625 -1.828125 -2.140625 L -5.8125 -2.140625 L -5.8125 -3.546875 Z M -6.25 -3.546875 "/>
</g>
<g id="glyph-3-4">
<path d="M -6.390625 -3.46875 C -6.390625 -1.671875 -5.0625 -0.40625 -3.140625 -0.40625 C -1.265625 -0.40625 0.140625 -1.703125 0.140625 -3.453125 C 0.140625 -5.203125 -1.328125 -6.53125 -3.25 -6.53125 C -5.078125 -6.53125 -6.390625 -5.25 -6.390625 -3.46875 Z M -6 -3.296875 C -6 -4.46875 -4.671875 -5.28125 -2.765625 -5.28125 C -1.203125 -5.28125 -0.25 -4.65625 -0.25 -3.609375 C -0.25 -3.078125 -0.578125 -2.5625 -1.140625 -2.265625 C -1.859375 -1.875 -2.84375 -1.65625 -3.828125 -1.65625 C -5.140625 -1.65625 -6 -2.3125 -6 -3.296875 Z M -6 -3.296875 "/>
</g>
<g id="glyph-3-5">
<path d="M -5.46875 -0.125 C -5.484375 -0.25 -5.484375 -0.34375 -5.484375 -0.46875 C -5.484375 -0.953125 -5.34375 -1.046875 -4.6875 -1.046875 L 1.828125 -1.046875 C 2.546875 -1.046875 2.703125 -0.890625 2.78125 -0.0625 L 3.015625 -0.0625 L 3.015625 -3.4375 L 2.765625 -3.4375 C 2.75 -2.390625 2.59375 -2.21875 1.71875 -2.21875 L -0.453125 -2.21875 C 0 -2.703125 0.140625 -3.03125 0.140625 -3.609375 C 0.140625 -5.25 -1.421875 -6.53125 -3.4375 -6.53125 C -5.15625 -6.53125 -6.390625 -5.5625 -6.390625 -4.21875 C -6.390625 -3.4375 -6.046875 -2.828125 -5.296875 -2.21875 L -6.375 -2.21875 L -6.390625 -2.125 C -6.109375 -1.375 -5.921875 -0.890625 -5.6875 -0.125 Z M -4.640625 -2.21875 C -5.0625 -2.21875 -5.5625 -2.984375 -5.5625 -3.625 C -5.5625 -4.65625 -4.5 -5.34375 -2.890625 -5.34375 C -1.34375 -5.34375 -0.3125 -4.65625 -0.3125 -3.65625 C -0.3125 -3 -0.8125 -2.21875 -1.21875 -2.21875 Z M -4.640625 -2.21875 "/>
</g>
<g id="glyph-3-6">
<path d="M -3.578125 -0.546875 L -2.703125 -0.546875 L -2.703125 -3.96875 L -3.578125 -3.96875 Z M -3.578125 -0.546875 "/>
</g>
<g id="glyph-3-7">
<path d="M -9.40625 -4.046875 L -8.140625 -1.546875 L -7.9375 -1.546875 C -8.015625 -1.703125 -8.0625 -1.859375 -8.09375 -1.921875 C -8.1875 -2.171875 -8.25 -2.40625 -8.25 -2.546875 C -8.25 -2.84375 -8.03125 -2.96875 -7.59375 -2.96875 L -1.296875 -2.96875 C -0.828125 -2.96875 -0.515625 -2.84375 -0.390625 -2.625 C -0.265625 -2.421875 -0.21875 -2.21875 -0.203125 -1.640625 L 0 -1.640625 L 0 -5.484375 L -0.203125 -5.484375 C -0.21875 -4.375 -0.359375 -4.15625 -1.03125 -4.15625 L -9.375 -4.15625 Z M -9.40625 -4.046875 "/>
</g>
<g id="glyph-3-8">
<path d="M -9.40625 -3.53125 C -9.40625 -2.765625 -9.171875 -2.1875 -8.671875 -1.671875 C -7.90625 -0.859375 -6.296875 -0.328125 -4.671875 -0.328125 C -3.15625 -0.328125 -1.53125 -0.796875 -0.75 -1.453125 C -0.140625 -1.953125 0.1875 -2.671875 0.1875 -3.46875 C 0.1875 -4.1875 -0.046875 -4.78125 -0.53125 -5.28125 C -1.296875 -6.09375 -2.90625 -6.625 -4.59375 -6.625 C -7.4375 -6.625 -9.40625 -5.359375 -9.40625 -3.53125 Z M -9.03125 -3.484375 C -9.03125 -4.65625 -7.46875 -5.28125 -4.5625 -5.28125 C -1.65625 -5.28125 -0.171875 -4.671875 -0.171875 -3.46875 C -0.171875 -2.28125 -1.65625 -1.671875 -4.546875 -1.671875 C -7.5 -1.671875 -9.03125 -2.296875 -9.03125 -3.484375 Z M -9.03125 -3.484375 "/>
</g>
<g id="glyph-3-9">
<path d="M -4.046875 -2.8125 C -4.015625 -3.171875 -4 -3.40625 -4 -3.765625 C -4 -4.859375 -4.140625 -5.609375 -4.484375 -6.203125 C -4.921875 -7.03125 -5.765625 -7.53125 -6.6875 -7.53125 C -7.265625 -7.53125 -7.796875 -7.34375 -8.203125 -6.96875 C -8.8125 -6.40625 -9.203125 -5.203125 -9.203125 -3.890625 L -9.203125 -0.21875 L -8.9375 -0.21875 C -8.828125 -1.25 -8.6875 -1.390625 -7.6875 -1.390625 L -1.671875 -1.390625 C -0.5 -1.390625 -0.359375 -1.28125 -0.265625 -0.21875 L 0 -0.21875 L 0 -4.109375 L -0.265625 -4.109375 C -0.3125 -3.015625 -0.5 -2.8125 -1.515625 -2.8125 Z M -8.21875 -2.8125 C -8.59375 -2.8125 -8.6875 -2.90625 -8.6875 -3.28125 C -8.6875 -5.15625 -8.03125 -6.015625 -6.609375 -6.015625 C -5.25 -6.015625 -4.5625 -5.203125 -4.5625 -3.609375 C -4.5625 -3.328125 -4.578125 -3.125 -4.609375 -2.8125 Z M -8.21875 -2.8125 "/>
</g>
<g id="glyph-3-10">
<path d="M -7.96875 -9.375 L -1.671875 -9.375 C -0.515625 -9.375 -0.328125 -9.203125 -0.265625 -8.109375 L 0 -8.109375 L 0 -12 L -0.265625 -12 C -0.328125 -10.984375 -0.53125 -10.796875 -1.515625 -10.796875 L -7.6875 -10.796875 C -8.671875 -10.796875 -8.859375 -10.96875 -8.9375 -12 L -9.203125 -12 L -9.203125 -9.234375 L -2.1875 -6.15625 L -9.203125 -2.953125 L -9.203125 -0.1875 L -8.9375 -0.1875 C -8.875 -1.328125 -8.703125 -1.515625 -7.6875 -1.515625 L -2.046875 -1.515625 C -0.609375 -1.515625 -0.34375 -1.328125 -0.265625 -0.171875 L 0 -0.171875 L 0 -3.4375 L -0.265625 -3.4375 C -0.3125 -2.359375 -0.640625 -2.125 -2.046875 -2.125 L -7.640625 -2.125 L 0 -5.625 L 0 -5.8125 Z M -7.96875 -9.375 "/>
</g>
<g id="glyph-3-11">
<path d="M -3.21875 -6.65625 L -6.4375 -6.65625 L -6.4375 -6.34375 C -5.328125 -6.171875 -5.125 -5.921875 -5.125 -4.8125 L -5.125 -2.796875 L -8.203125 -2.796875 C -8.59375 -2.796875 -8.671875 -2.859375 -8.671875 -3.234375 L -8.671875 -5.125 C -8.671875 -6.703125 -8.46875 -7.015625 -7.21875 -7.25 L -7.21875 -7.59375 L -9.203125 -7.546875 L -9.203125 -0.171875 L -8.9375 -0.171875 C -8.859375 -1.203125 -8.65625 -1.375 -7.6875 -1.375 L -1.671875 -1.375 C -0.515625 -1.375 -0.328125 -1.21875 -0.265625 -0.171875 L 0 -0.171875 L 0 -4.0625 L -0.265625 -4.0625 C -0.3125 -2.984375 -0.515625 -2.796875 -1.515625 -2.796875 L -4.546875 -2.796875 L -4.546875 -4.8125 C -4.546875 -5.9375 -4.34375 -6.171875 -3.21875 -6.34375 Z M -3.21875 -6.65625 "/>
</g>
<g id="glyph-4-0">
<path d="M 10.8125 -7.671875 L 8.515625 -7.671875 L 8.515625 -7.453125 C 9.09375 -7.390625 9.3125 -7.265625 9.3125 -6.953125 C 9.3125 -6.71875 9.234375 -6.40625 9.125 -6.09375 L 7.671875 -2.15625 L 6.140625 -6.109375 C 6.125 -6.171875 6.015625 -6.421875 6 -6.453125 C 5.90625 -6.703125 5.828125 -6.921875 5.828125 -7.046875 C 5.828125 -7.328125 6.09375 -7.4375 6.71875 -7.453125 L 6.71875 -7.671875 L 3.625 -7.671875 L 3.625 -7.453125 C 4.296875 -7.4375 4.40625 -7.34375 4.796875 -6.40625 L 5.1875 -5.453125 L 3.9375 -2.1875 L 2.265625 -6.546875 C 2.1875 -6.765625 2.140625 -6.953125 2.140625 -7.078125 C 2.140625 -7.34375 2.3125 -7.421875 2.90625 -7.453125 L 2.90625 -7.671875 L 0.0625 -7.671875 L 0.0625 -7.453125 C 0.65625 -7.390625 0.828125 -7.1875 1.25 -6.09375 L 3.484375 0.125 L 3.65625 0.125 L 5.453125 -4.78125 L 7.296875 0.125 L 7.484375 0.125 C 8.46875 -2.90625 8.578125 -3.21875 9.84375 -6.625 C 10.0625 -7.234375 10.1875 -7.34375 10.8125 -7.453125 Z M 10.8125 -7.671875 "/>
</g>
<g id="glyph-4-1">
<path d="M 2.03125 -5.328125 L 0.234375 -4.703125 L 0.234375 -4.515625 L 0.328125 -4.53125 C 0.46875 -4.5625 0.609375 -4.5625 0.71875 -4.5625 C 1 -4.5625 1.09375 -4.375 1.09375 -3.875 L 1.09375 -1.1875 C 1.09375 -0.34375 0.984375 -0.21875 0.1875 -0.171875 L 0.1875 0 L 2.9375 0 L 2.9375 -0.171875 C 2.171875 -0.234375 2.078125 -0.34375 2.078125 -1.1875 L 2.078125 -5.296875 Z M 1.484375 -7.921875 C 1.171875 -7.921875 0.90625 -7.65625 0.90625 -7.328125 C 0.90625 -7 1.15625 -6.734375 1.484375 -6.734375 C 1.8125 -6.734375 2.09375 -6.984375 2.09375 -7.328125 C 2.09375 -7.65625 1.8125 -7.921875 1.484375 -7.921875 Z M 1.484375 -7.921875 "/>
</g>
<g id="glyph-4-2">
<path d="M 2.953125 -5.21875 L 1.78125 -5.21875 L 1.78125 -6.5625 C 1.78125 -6.671875 1.78125 -6.71875 1.703125 -6.71875 C 1.625 -6.609375 1.546875 -6.5 1.46875 -6.390625 C 1.03125 -5.75 0.53125 -5.1875 0.34375 -5.140625 C 0.21875 -5.0625 0.15625 -4.984375 0.15625 -4.921875 C 0.15625 -4.890625 0.15625 -4.875 0.203125 -4.84375 L 0.8125 -4.84375 L 0.8125 -1.359375 C 0.8125 -0.375 1.15625 0.109375 1.84375 0.109375 C 2.40625 0.109375 2.859375 -0.15625 3.234375 -0.765625 L 3.078125 -0.890625 C 2.84375 -0.609375 2.640625 -0.484375 2.390625 -0.484375 C 1.953125 -0.484375 1.78125 -0.796875 1.78125 -1.53125 L 1.78125 -4.84375 L 2.953125 -4.84375 Z M 2.953125 -5.21875 "/>
</g>
<g id="glyph-4-3">
<path d="M 1.8125 -3.984375 C 2.3125 -4.515625 2.65625 -4.703125 3.109375 -4.703125 C 3.6875 -4.703125 3.984375 -4.296875 3.984375 -3.484375 L 3.984375 -1.1875 C 3.984375 -0.390625 3.859375 -0.25 3.1875 -0.171875 L 3.1875 0 L 5.640625 0 L 5.640625 -0.171875 C 5.015625 -0.296875 4.953125 -0.375 4.953125 -1.1875 L 4.953125 -3.484375 C 4.953125 -4.703125 4.46875 -5.328125 3.53125 -5.328125 C 2.84375 -5.328125 2.359375 -5.0625 1.8125 -4.359375 L 1.8125 -7.890625 L 1.765625 -7.921875 C 1.375 -7.78125 1.078125 -7.6875 0.421875 -7.5 L 0.109375 -7.40625 L 0.109375 -7.21875 C 0.15625 -7.234375 0.203125 -7.234375 0.25 -7.234375 C 0.75 -7.234375 0.84375 -7.140625 0.84375 -6.640625 L 0.84375 -1.1875 C 0.84375 -0.375 0.78125 -0.265625 0.109375 -0.171875 L 0.109375 0 L 2.609375 0 L 2.609375 -0.171875 C 1.9375 -0.25 1.8125 -0.375 1.8125 -1.1875 Z M 1.8125 -3.984375 "/>
</g>
<g id="glyph-4-4">
<path d="M 7.8125 -6.640625 L 7.8125 -1.390625 C 7.8125 -0.421875 7.671875 -0.28125 6.765625 -0.21875 L 6.765625 0 L 10 0 L 10 -0.21875 C 9.15625 -0.28125 9 -0.4375 9 -1.265625 L 9 -6.40625 C 9 -7.234375 9.140625 -7.390625 10 -7.453125 L 10 -7.671875 L 7.703125 -7.671875 L 5.140625 -1.8125 L 2.453125 -7.671875 L 0.15625 -7.671875 L 0.15625 -7.453125 C 1.109375 -7.390625 1.265625 -7.25 1.265625 -6.40625 L 1.265625 -1.703125 C 1.265625 -0.515625 1.09375 -0.296875 0.140625 -0.21875 L 0.140625 0 L 2.859375 0 L 2.859375 -0.21875 C 1.96875 -0.265625 1.78125 -0.53125 1.78125 -1.703125 L 1.78125 -6.375 L 4.6875 0 L 4.84375 0 Z M 7.8125 -6.640625 "/>
</g>
<g id="glyph-4-5">
<path d="M 8.1875 -0.21875 C 7.65625 -0.25 7.546875 -0.375 7.140625 -1.234375 L 4.25 -7.8125 L 4.015625 -7.8125 L 1.609375 -2.125 C 0.875 -0.421875 0.734375 -0.25 0.171875 -0.21875 L 0.171875 0 L 2.46875 0 L 2.46875 -0.21875 C 1.90625 -0.21875 1.6875 -0.375 1.6875 -0.703125 C 1.6875 -0.828125 1.71875 -1 1.78125 -1.140625 L 2.3125 -2.5 L 5.34375 -2.5 L 5.8125 -1.390625 C 5.953125 -1.078125 6.046875 -0.78125 6.046875 -0.609375 C 6.046875 -0.328125 5.84375 -0.234375 5.234375 -0.21875 L 5.234375 0 L 8.1875 0 Z M 2.5 -2.984375 L 3.84375 -6.171875 L 5.1875 -2.984375 Z M 2.5 -2.984375 "/>
</g>
<g id="glyph-4-6">
<path d="M 2.90625 -5.328125 C 1.390625 -5.328125 0.34375 -4.21875 0.34375 -2.625 C 0.34375 -1.0625 1.421875 0.109375 2.875 0.109375 C 4.34375 0.109375 5.453125 -1.109375 5.453125 -2.71875 C 5.453125 -4.234375 4.375 -5.328125 2.90625 -5.328125 Z M 2.75 -5.015625 C 3.71875 -5.015625 4.40625 -3.890625 4.40625 -2.3125 C 4.40625 -1 3.890625 -0.203125 3.015625 -0.203125 C 2.5625 -0.203125 2.140625 -0.484375 1.890625 -0.953125 C 1.5625 -1.546875 1.375 -2.359375 1.375 -3.1875 C 1.375 -4.296875 1.921875 -5.015625 2.75 -5.015625 Z M 2.75 -5.015625 "/>
</g>
<g id="glyph-4-7">
<path d="M 5.546875 -0.578125 L 5.5 -0.578125 C 4.96875 -0.578125 4.828125 -0.703125 4.828125 -1.234375 L 4.828125 -5.21875 L 3 -5.21875 L 3 -5.015625 C 3.71875 -4.984375 3.859375 -4.875 3.859375 -4.296875 L 3.859375 -1.5625 C 3.859375 -1.234375 3.796875 -1.078125 3.640625 -0.953125 C 3.328125 -0.703125 2.96875 -0.5625 2.625 -0.5625 C 2.171875 -0.5625 1.796875 -0.953125 1.796875 -1.4375 L 1.796875 -5.21875 L 0.109375 -5.21875 L 0.109375 -5.0625 C 0.65625 -5.015625 0.828125 -4.84375 0.828125 -4.3125 L 0.828125 -1.390625 C 0.828125 -0.46875 1.375 0.109375 2.21875 0.109375 C 2.65625 0.109375 3.109375 -0.0625 3.421875 -0.375 L 3.921875 -0.875 L 3.921875 0.078125 L 3.96875 0.109375 C 4.546875 -0.125 4.96875 -0.25 5.546875 -0.421875 Z M 5.546875 -0.578125 "/>
</g>
</g>
<clipPath id="clip-0">
<path clip-rule="nonzero" d="M 0.359375 0 L 343.378906 0 L 343.378906 200.011719 L 0.359375 200.011719 Z M 0.359375 0 "/>
</clipPath>
<clipPath id="clip-1">
<path clip-rule="nonzero" d="M 59 7.992188 L 62 7.992188 L 62 160.457031 L 59 160.457031 Z M 59 7.992188 "/>
</clipPath>
<clipPath id="clip-2">
<path clip-rule="nonzero" d="M 111 7.992188 L 113 7.992188 L 113 160.457031 L 111 160.457031 Z M 111 7.992188 "/>
</clipPath>
<clipPath id="clip-3">
<path clip-rule="nonzero" d="M 163 7.992188 L 165 7.992188 L 165 160.457031 L 163 160.457031 Z M 163 7.992188 "/>
</clipPath>
<clipPath id="clip-4">
<path clip-rule="nonzero" d="M 214 7.992188 L 217 7.992188 L 217 160.457031 L 214 160.457031 Z M 214 7.992188 "/>
</clipPath>
<clipPath id="clip-5">
<path clip-rule="nonzero" d="M 266 7.992188 L 269 7.992188 L 269 160.457031 L 266 160.457031 Z M 266 7.992188 "/>
</clipPath>
<clipPath id="clip-6">
<path clip-rule="nonzero" d="M 318 7.992188 L 320 7.992188 L 320 160.457031 L 318 160.457031 Z M 318 7.992188 "/>
</clipPath>
<clipPath id="clip-7">
<path clip-rule="nonzero" d="M 47.367188 123 L 332.089844 123 L 332.089844 125 L 47.367188 125 Z M 47.367188 123 "/>
</clipPath>
<clipPath id="clip-8">
<path clip-rule="nonzero" d="M 47.367188 86 L 332.089844 86 L 332.089844 88 L 47.367188 88 Z M 47.367188 86 "/>
</clipPath>
<clipPath id="clip-9">
<path clip-rule="nonzero" d="M 47.367188 48 L 332.089844 48 L 332.089844 51 L 47.367188 51 Z M 47.367188 48 "/>
</clipPath>
<clipPath id="clip-10">
<path clip-rule="nonzero" d="M 47.367188 11 L 332.089844 11 L 332.089844 13 L 47.367188 13 Z M 47.367188 11 "/>
</clipPath>
</defs>
<g clip-path="url(#clip-0)">
<path fill-rule="nonzero" fill="rgb(100%, 100%, 100%)" fill-opacity="1" d="M 0.359375 200.011719 L 343.378906 200.011719 L 343.378906 0 L 0.359375 0 Z M 0.359375 200.011719 "/>
</g>
<path fill-rule="nonzero" fill="rgb(99.214172%, 99.214172%, 99.214172%)" fill-opacity="1" d="M 47.367188 160.457031 L 332.089844 160.457031 L 332.089844 7.992188 L 47.367188 7.992188 Z M 47.367188 160.457031 "/>
<g clip-path="url(#clip-1)">
<path fill="none" stroke-width="1" stroke-linecap="square" stroke-linejoin="round" stroke="rgb(69.018555%, 69.018555%, 69.018555%)" stroke-opacity="0.3" stroke-miterlimit="10" d="M 60.099007 39.652581 L 60.099007 192.49351 " transform="matrix(0.997539, 0, 0, -0.997539, 0.357469, 200.012041)"/>
</g>
<path fill="none" stroke-width="0.8" stroke-linecap="butt" stroke-linejoin="round" stroke="rgb(19.999695%, 19.999695%, 19.999695%)" stroke-opacity="1" stroke-miterlimit="10" d="M 60.099007 39.652581 L 60.099007 43.153382 " transform="matrix(0.997539, 0, 0, -0.997539, 0.357469, 200.012041)"/>
<g fill="rgb(19.999695%, 19.999695%, 19.999695%)" fill-opacity="1">
<use xlink:href="#glyph-0-0" x="56.904095" y="173.382203"/>
</g>
<g clip-path="url(#clip-2)">
<path fill="none" stroke-width="1" stroke-linecap="square" stroke-linejoin="round" stroke="rgb(69.018555%, 69.018555%, 69.018555%)" stroke-opacity="0.3" stroke-miterlimit="10" d="M 112.000154 39.652581 L 112.000154 192.49351 " transform="matrix(0.997539, 0, 0, -0.997539, 0.357469, 200.012041)"/>
</g>
<path fill="none" stroke-width="0.8" stroke-linecap="butt" stroke-linejoin="round" stroke="rgb(19.999695%, 19.999695%, 19.999695%)" stroke-opacity="1" stroke-miterlimit="10" d="M 112.000154 39.652581 L 112.000154 43.153382 " transform="matrix(0.997539, 0, 0, -0.997539, 0.357469, 200.012041)"/>
<g fill="rgb(19.999695%, 19.999695%, 19.999695%)" fill-opacity="1">
<use xlink:href="#glyph-0-1" x="98.458241" y="173.382203"/>
<use xlink:href="#glyph-0-2" x="105.261882" y="173.382203"/>
<use xlink:href="#glyph-0-0" x="112.065523" y="173.382203"/>
<use xlink:href="#glyph-0-0" x="118.869164" y="173.382203"/>
</g>
<g clip-path="url(#clip-3)">
<path fill="none" stroke-width="1" stroke-linecap="square" stroke-linejoin="round" stroke="rgb(69.018555%, 69.018555%, 69.018555%)" stroke-opacity="0.3" stroke-miterlimit="10" d="M 163.897386 39.652581 L 163.897386 192.49351 " transform="matrix(0.997539, 0, 0, -0.997539, 0.357469, 200.012041)"/>
</g>
<path fill="none" stroke-width="0.8" stroke-linecap="butt" stroke-linejoin="round" stroke="rgb(19.999695%, 19.999695%, 19.999695%)" stroke-opacity="1" stroke-miterlimit="10" d="M 163.897386 39.652581 L 163.897386 43.153382 " transform="matrix(0.997539, 0, 0, -0.997539, 0.357469, 200.012041)"/>
<g fill="rgb(19.999695%, 19.999695%, 19.999695%)" fill-opacity="1">
<use xlink:href="#glyph-0-2" x="150.229916" y="173.382203"/>
<use xlink:href="#glyph-0-0" x="157.033557" y="173.382203"/>
<use xlink:href="#glyph-0-0" x="163.837198" y="173.382203"/>
<use xlink:href="#glyph-0-0" x="170.640838" y="173.382203"/>
</g>
<g clip-path="url(#clip-4)">
<path fill="none" stroke-width="1" stroke-linecap="square" stroke-linejoin="round" stroke="rgb(69.018555%, 69.018555%, 69.018555%)" stroke-opacity="0.3" stroke-miterlimit="10" d="M 215.798533 39.652581 L 215.798533 192.49351 " transform="matrix(0.997539, 0, 0, -0.997539, 0.357469, 200.012041)"/>
</g>
<path fill="none" stroke-width="0.8" stroke-linecap="butt" stroke-linejoin="round" stroke="rgb(19.999695%, 19.999695%, 19.999695%)" stroke-opacity="1" stroke-miterlimit="10" d="M 215.798533 39.652581 L 215.798533 43.153382 " transform="matrix(0.997539, 0, 0, -0.997539, 0.357469, 200.012041)"/>
<g fill="rgb(19.999695%, 19.999695%, 19.999695%)" fill-opacity="1">
<use xlink:href="#glyph-0-3" x="202.001591" y="173.382203"/>
<use xlink:href="#glyph-0-2" x="208.805232" y="173.382203"/>
<use xlink:href="#glyph-0-0" x="215.608872" y="173.382203"/>
<use xlink:href="#glyph-0-0" x="222.412513" y="173.382203"/>
</g>
<g clip-path="url(#clip-5)">
<path fill="none" stroke-width="1" stroke-linecap="square" stroke-linejoin="round" stroke="rgb(69.018555%, 69.018555%, 69.018555%)" stroke-opacity="0.3" stroke-miterlimit="10" d="M 267.69968 39.652581 L 267.69968 192.49351 " transform="matrix(0.997539, 0, 0, -0.997539, 0.357469, 200.012041)"/>
</g>
<path fill="none" stroke-width="0.8" stroke-linecap="butt" stroke-linejoin="round" stroke="rgb(19.999695%, 19.999695%, 19.999695%)" stroke-opacity="1" stroke-miterlimit="10" d="M 267.69968 39.652581 L 267.69968 43.153382 " transform="matrix(0.997539, 0, 0, -0.997539, 0.357469, 200.012041)"/>
<g fill="rgb(19.999695%, 19.999695%, 19.999695%)" fill-opacity="1">
<use xlink:href="#glyph-0-4" x="250.367422" y="173.382203"/>
<use xlink:href="#glyph-0-0" x="257.171063" y="173.382203"/>
<use xlink:href="#glyph-0-0" x="263.974704" y="173.382203"/>
<use xlink:href="#glyph-0-0" x="270.778345" y="173.382203"/>
<use xlink:href="#glyph-0-0" x="277.581986" y="173.382203"/>
</g>
<g clip-path="url(#clip-6)">
<path fill="none" stroke-width="1" stroke-linecap="square" stroke-linejoin="round" stroke="rgb(69.018555%, 69.018555%, 69.018555%)" stroke-opacity="0.3" stroke-miterlimit="10" d="M 319.596912 39.652581 L 319.596912 192.49351 " transform="matrix(0.997539, 0, 0, -0.997539, 0.357469, 200.012041)"/>
</g>
<path fill="none" stroke-width="0.8" stroke-linecap="butt" stroke-linejoin="round" stroke="rgb(19.999695%, 19.999695%, 19.999695%)" stroke-opacity="1" stroke-miterlimit="10" d="M 319.596912 39.652581 L 319.596912 43.153382 " transform="matrix(0.997539, 0, 0, -0.997539, 0.357469, 200.012041)"/>
<g fill="rgb(19.999695%, 19.999695%, 19.999695%)" fill-opacity="1">
<use xlink:href="#glyph-0-4" x="302.139097" y="173.382203"/>
<use xlink:href="#glyph-0-1" x="308.942738" y="173.382203"/>
<use xlink:href="#glyph-0-2" x="315.746379" y="173.382203"/>
<use xlink:href="#glyph-0-0" x="322.55002" y="173.382203"/>
<use xlink:href="#glyph-0-0" x="329.353661" y="173.382203"/>
</g>
<g fill="rgb(0%, 0%, 0%)" fill-opacity="1">
<use xlink:href="#glyph-1-0" x="166.159865" y="189.817627"/>
<use xlink:href="#glyph-1-1" x="170.779106" y="189.817627"/>
<use xlink:href="#glyph-1-2" x="174.633111" y="189.817627"/>
<use xlink:href="#glyph-1-3" x="180.796737" y="189.817627"/>
<use xlink:href="#glyph-1-4" x="185.415978" y="189.817627"/>
<use xlink:href="#glyph-1-1" x="191.579603" y="189.817627"/>
<use xlink:href="#glyph-1-5" x="195.433608" y="189.817627"/>
<use xlink:href="#glyph-1-6" x="199.287614" y="189.817627"/>
<use xlink:href="#glyph-1-7" x="206.244302" y="189.817627"/>
</g>
<g clip-path="url(#clip-7)">
<path fill="none" stroke-width="1" stroke-linecap="square" stroke-linejoin="round" stroke="rgb(69.018555%, 69.018555%, 69.018555%)" stroke-opacity="0.3" stroke-miterlimit="10" d="M 47.125678 76.046821 L 332.550661 76.046821 " transform="matrix(0.997539, 0, 0, -0.997539, 0.357469, 200.012041)"/>
</g>
<g fill="rgb(19.999695%, 19.999695%, 19.999695%)" fill-opacity="1">
<use xlink:href="#glyph-0-0" x="23.975177" y="128.86869"/>
</g>
<g fill="rgb(19.999695%, 19.999695%, 19.999695%)" fill-opacity="1">
<use xlink:href="#glyph-2-0" x="30.786863" y="128.86869"/>
</g>
<g fill="rgb(19.999695%, 19.999695%, 19.999695%)" fill-opacity="1">
<use xlink:href="#glyph-0-5" x="34.571133" y="128.86869"/>
</g>
<g clip-path="url(#clip-8)">
<path fill="none" stroke-width="1" stroke-linecap="square" stroke-linejoin="round" stroke="rgb(69.018555%, 69.018555%, 69.018555%)" stroke-opacity="0.3" stroke-miterlimit="10" d="M 47.125678 113.557089 L 332.550661 113.557089 " transform="matrix(0.997539, 0, 0, -0.997539, 0.357469, 200.012041)"/>
</g>
<g fill="rgb(19.999695%, 19.999695%, 19.999695%)" fill-opacity="1">
<use xlink:href="#glyph-0-4" x="23.975177" y="91.450934"/>
</g>
<g fill="rgb(19.999695%, 19.999695%, 19.999695%)" fill-opacity="1">
<use xlink:href="#glyph-2-0" x="30.786863" y="91.450934"/>
</g>
<g fill="rgb(19.999695%, 19.999695%, 19.999695%)" fill-opacity="1">
<use xlink:href="#glyph-0-0" x="34.571133" y="91.450934"/>
</g>
<g clip-path="url(#clip-9)">
<path fill="none" stroke-width="1" stroke-linecap="square" stroke-linejoin="round" stroke="rgb(69.018555%, 69.018555%, 69.018555%)" stroke-opacity="0.3" stroke-miterlimit="10" d="M 47.125678 151.067357 L 332.550661 151.067357 " transform="matrix(0.997539, 0, 0, -0.997539, 0.357469, 200.012041)"/>
</g>
<g fill="rgb(19.999695%, 19.999695%, 19.999695%)" fill-opacity="1">
<use xlink:href="#glyph-0-4" x="23.975177" y="54.033177"/>
</g>
<g fill="rgb(19.999695%, 19.999695%, 19.999695%)" fill-opacity="1">
<use xlink:href="#glyph-2-0" x="30.786863" y="54.033177"/>
</g>
<g fill="rgb(19.999695%, 19.999695%, 19.999695%)" fill-opacity="1">
<use xlink:href="#glyph-0-1" x="34.571133" y="54.033177"/>
</g>
<g clip-path="url(#clip-10)">
<path fill="none" stroke-width="1" stroke-linecap="square" stroke-linejoin="round" stroke="rgb(69.018555%, 69.018555%, 69.018555%)" stroke-opacity="0.3" stroke-miterlimit="10" d="M 47.125678 188.577625 L 332.550661 188.577625 " transform="matrix(0.997539, 0, 0, -0.997539, 0.357469, 200.012041)"/>
</g>
<g fill="rgb(19.999695%, 19.999695%, 19.999695%)" fill-opacity="1">
<use xlink:href="#glyph-0-4" x="23.975177" y="16.61542"/>
</g>
<g fill="rgb(19.999695%, 19.999695%, 19.999695%)" fill-opacity="1">
<use xlink:href="#glyph-2-0" x="30.786863" y="16.61542"/>
</g>
<g fill="rgb(19.999695%, 19.999695%, 19.999695%)" fill-opacity="1">
<use xlink:href="#glyph-0-6" x="34.571133" y="16.61542"/>
</g>
<g fill="rgb(0%, 0%, 0%)" fill-opacity="1">
<use xlink:href="#glyph-3-0" x="16.972889" y="131.251442"/>
</g>
<g fill="rgb(0%, 0%, 0%)" fill-opacity="1">
<use xlink:href="#glyph-3-1" x="16.972889" y="122.249483"/>
<use xlink:href="#glyph-3-2" x="16.972889" y="115.292795"/>
</g>
<g fill="rgb(0%, 0%, 0%)" fill-opacity="1">
<use xlink:href="#glyph-3-3" x="16.972889" y="104.857763"/>
<use xlink:href="#glyph-3-4" x="16.972889" y="101.003758"/>
<use xlink:href="#glyph-3-5" x="16.972889" y="94.04707"/>
<use xlink:href="#glyph-3-6" x="16.972889" y="87.090382"/>
<use xlink:href="#glyph-3-7" x="16.972889" y="82.471141"/>
<use xlink:href="#glyph-3-8" x="16.972889" y="75.514453"/>
</g>
<g fill="rgb(0%, 0%, 0%)" fill-opacity="1">
<use xlink:href="#glyph-3-9" x="16.972889" y="65.079421"/>
<use xlink:href="#glyph-3-10" x="16.972889" y="57.357498"/>
<use xlink:href="#glyph-3-11" x="16.972889" y="45.00242"/>
</g>
<path fill-rule="nonzero" fill="rgb(0%, 50.195312%, 50.195312%)" fill-opacity="0.3" stroke-width="1" stroke-linecap="butt" stroke-linejoin="round" stroke="rgb(0%, 50.195312%, 50.195312%)" stroke-opacity="0.3" stroke-miterlimit="10" d="M 60.099007 58.77385 L 60.099007 49.93178 L 60.185156 49.93178 L 60.204736 46.599362 L 60.807782 46.599362 L 60.827362 57.258402 L 65.33063 57.258402 L 65.354125 57.33672 L 87.482795 57.33672 L 87.502374 64.581108 L 105.233504 64.581108 L 105.253083 65.889014 L 170.977307 65.889014 L 171.000802 73.21172 L 186.570363 73.21172 L 186.589943 79.453642 L 191.614024 79.453642 L 191.633603 109.637287 L 192.546005 109.637287 L 192.5695 139.824849 L 194.809386 139.824849 L 194.832882 170.008495 L 319.577332 170.008495 L 194.832882 170.008495 L 194.809386 175.189212 L 192.5695 175.189212 L 192.546005 180.366013 L 191.633603 180.366013 L 191.614024 185.546729 L 186.589943 185.546729 L 186.570363 166.77789 L 171.000802 166.77789 L 170.977307 167.850842 L 105.253083 167.850842 L 105.233504 144.151903 L 87.502374 144.151903 L 87.482795 126.389446 L 65.354125 126.389446 L 65.33063 101.464834 L 60.827362 101.464834 L 60.807782 87.113114 L 60.204736 87.113114 L 60.185156 58.77385 Z M 60.099007 58.77385 " transform="matrix(0.997539, 0, 0, -0.997539, 0.357469, 200.012041)"/>
<path fill-rule="nonzero" fill="rgb(100%, 38.822937%, 27.842712%)" fill-opacity="0.3" stroke-width="1" stroke-linecap="butt" stroke-linejoin="round" stroke="rgb(100%, 38.822937%, 27.842712%)" stroke-opacity="0.3" stroke-miterlimit="10" d="M 60.099007 57.477692 L 60.161661 57.477692 L 60.185156 52.300891 L 60.745128 52.300891 L 60.764708 64.804314 L 191.860725 64.804314 L 191.88422 64.361819 L 201.184448 64.361819 L 201.204028 89.811159 L 219.099625 89.811159 L 219.119204 102.314581 L 224.746332 102.314581 L 224.765911 132.498227 L 229.355329 132.498227 L 229.374908 127.321427 L 259.538975 127.321427 L 259.558554 139.824849 L 264.563056 139.824849 L 264.582636 170.008495 L 319.577332 170.008495 L 264.582636 170.008495 L 264.563056 175.189212 L 259.558554 175.189212 L 259.538975 162.685789 L 229.374908 162.685789 L 229.355329 132.498227 L 224.765911 132.498227 L 224.746332 137.678944 L 219.119204 137.678944 L 219.099625 125.175521 L 201.204028 125.175521 L 201.184448 125.618016 L 191.88422 125.618016 L 191.860725 100.168676 L 60.764708 100.168676 L 60.745128 87.665254 L 60.185156 87.665254 L 60.161661 57.477692 Z M 60.099007 57.477692 " transform="matrix(0.997539, 0, 0, -0.997539, 0.357469, 200.012041)"/>
<path fill="none" stroke-width="2" stroke-linecap="square" stroke-linejoin="round" stroke="rgb(0%, 50.195312%, 50.195312%)" stroke-opacity="1" stroke-miterlimit="10" d="M 60.099007 54.352815 L 60.185156 54.352815 L 60.306549 66.856238 L 60.807782 66.856238 L 60.929175 79.35966 L 65.33063 79.35966 L 65.455938 91.863083 L 87.482795 91.863083 L 87.608103 104.366506 L 105.233504 104.366506 L 105.354896 116.869928 L 170.977307 116.869928 L 171.102615 119.994805 L 186.570363 119.994805 L 186.691756 132.498227 L 191.614024 132.498227 L 191.739332 145.00165 L 192.546005 145.00165 L 192.671313 157.505073 L 194.809386 157.505073 L 194.934695 170.008495 L 319.577332 170.008495 " transform="matrix(0.997539, 0, 0, -0.997539, 0.357469, 200.012041)"/>
<path fill="none" stroke-width="2" stroke-linecap="square" stroke-linejoin="round" stroke="rgb(100%, 38.822937%, 27.842712%)" stroke-opacity="1" stroke-miterlimit="10" d="M 60.099007 57.477692 L 60.161661 57.477692 L 60.286969 69.981114 L 60.745128 69.981114 L 60.866521 82.484537 L 191.860725 82.484537 L 191.986033 94.98796 L 201.184448 94.98796 L 201.309756 107.491382 L 219.099625 107.491382 L 219.224933 119.994805 L 224.746332 119.994805 L 224.87164 132.498227 L 229.355329 132.498227 L 229.480637 145.00165 L 259.538975 145.00165 L 259.664283 157.505073 L 264.563056 157.505073 L 264.688364 170.008495 L 319.577332 170.008495 " transform="matrix(0.997539, 0, 0, -0.997539, 0.357469, 200.012041)"/>
<path fill="none" stroke-width="1" stroke-linecap="square" stroke-linejoin="miter" stroke="rgb(46.665955%, 46.665955%, 46.665955%)" stroke-opacity="1" stroke-miterlimit="10" d="M 47.125678 39.652581 L 47.125678 192.49351 " transform="matrix(0.997539, 0, 0, -0.997539, 0.357469, 200.012041)"/>
<path fill="none" stroke-width="1" stroke-linecap="square" stroke-linejoin="miter" stroke="rgb(46.665955%, 46.665955%, 46.665955%)" stroke-opacity="1" stroke-miterlimit="10" d="M 332.550661 39.652581 L 332.550661 192.49351 " transform="matrix(0.997539, 0, 0, -0.997539, 0.357469, 200.012041)"/>
<path fill="none" stroke-width="1" stroke-linecap="square" stroke-linejoin="miter" stroke="rgb(46.665955%, 46.665955%, 46.665955%)" stroke-opacity="1" stroke-miterlimit="10" d="M 47.125678 39.652581 L 332.550661 39.652581 " transform="matrix(0.997539, 0, 0, -0.997539, 0.357469, 200.012041)"/>
<path fill="none" stroke-width="1" stroke-linecap="square" stroke-linejoin="miter" stroke="rgb(46.665955%, 46.665955%, 46.665955%)" stroke-opacity="1" stroke-miterlimit="10" d="M 47.125678 192.49351 L 332.550661 192.49351 " transform="matrix(0.997539, 0, 0, -0.997539, 0.357469, 200.012041)"/>
<path fill-rule="nonzero" fill="rgb(99.214172%, 99.214172%, 99.214172%)" fill-opacity="0.8" stroke-width="1" stroke-linecap="butt" stroke-linejoin="miter" stroke="rgb(79.998779%, 79.998779%, 79.998779%)" stroke-opacity="0.8" stroke-miterlimit="10" d="M 217.498027 45.483334 L 324.38604 45.483334 C 325.940647 45.483334 326.719908 46.25868 326.719908 47.817202 L 326.719908 79.669015 C 326.719908 81.223622 325.940647 81.998967 324.38604 81.998967 L 217.498027 81.998967 C 215.943421 81.998967 215.16416 81.223622 215.16416 79.669015 L 215.16416 47.817202 C 215.16416 46.25868 215.943421 45.483334 217.498027 45.483334 Z M 217.498027 45.483334 " transform="matrix(0.997539, 0, 0, -0.997539, 0.357469, 200.012041)"/>
<path fill="none" stroke-width="2" stroke-linecap="square" stroke-linejoin="round" stroke="rgb(0%, 50.195312%, 50.195312%)" stroke-opacity="1" stroke-miterlimit="10" d="M 219.831895 73.254795 L 243.15491 73.254795 " transform="matrix(0.997539, 0, 0, -0.997539, 0.357469, 200.012041)"/>
<g fill="rgb(0%, 0%, 0%)" fill-opacity="1">
<use xlink:href="#glyph-4-0" x="252.220155" y="131.009544"/>
</g>
<g fill="rgb(0%, 0%, 0%)" fill-opacity="1">
<use xlink:href="#glyph-4-1" x="262.685894" y="131.009544"/>
<use xlink:href="#glyph-4-2" x="265.896281" y="131.009544"/>
<use xlink:href="#glyph-4-3" x="269.106668" y="131.009544"/>
</g>
<g fill="rgb(0%, 0%, 0%)" fill-opacity="1">
<use xlink:href="#glyph-4-4" x="277.799048" y="131.009544"/>
<use xlink:href="#glyph-4-4" x="288.09083" y="131.009544"/>
<use xlink:href="#glyph-4-5" x="298.382612" y="131.009544"/>
</g>
<path fill="none" stroke-width="2" stroke-linecap="square" stroke-linejoin="round" stroke="rgb(100%, 38.822937%, 27.842712%)" stroke-opacity="1" stroke-miterlimit="10" d="M 219.831895 56.745421 L 243.15491 56.745421 " transform="matrix(0.997539, 0, 0, -0.997539, 0.357469, 200.012041)"/>
<g fill="rgb(0%, 0%, 0%)" fill-opacity="1">
<use xlink:href="#glyph-4-0" x="252.220155" y="147.478607"/>
</g>
<g fill="rgb(0%, 0%, 0%)" fill-opacity="1">
<use xlink:href="#glyph-4-1" x="262.685894" y="147.478607"/>
<use xlink:href="#glyph-4-2" x="265.896281" y="147.478607"/>
<use xlink:href="#glyph-4-3" x="269.106668" y="147.478607"/>
<use xlink:href="#glyph-4-6" x="274.901591" y="147.478607"/>
<use xlink:href="#glyph-4-7" x="280.696513" y="147.478607"/>
<use xlink:href="#glyph-4-2" x="286.491435" y="147.478607"/>
</g>
<g fill="rgb(0%, 0%, 0%)" fill-opacity="1">
<use xlink:href="#glyph-4-4" x="292.59928" y="147.478607"/>
<use xlink:href="#glyph-4-4" x="302.891062" y="147.478607"/>
<use xlink:href="#glyph-4-5" x="313.182844" y="147.478607"/>
</g>
</svg>
